<?xml version="1.0" encoding="utf-8"?>
<!-- Generator: Adobe Illustrator 22.1.0, SVG Export Plug-In . SVG Version: 6.00 Build 0)  -->
<svg version="1.1" id="Layer_1" xmlns="http://www.w3.org/2000/svg" xmlns:xlink="http://www.w3.org/1999/xlink" x="0px" y="0px"
	 viewBox="0 0 1131.4 432.5" style="enable-background:new 0 0 1131.4 432.5;" xml:space="preserve">
<style type="text/css">
	.st0{fill:#D35360;}
	.st1{fill:#AD4756;}
	.st2{opacity:0.73;fill:url(#SVGID_1_);}
	.st3{fill:#EFEFEF;}
	.st4{fill:#7A7A7A;}
</style>
<g>
	<polygon class="st0" points="391.7,256.2 391.2,255.2 390.5,256.2 	"/>
	<polygon class="st0" points="391.1,254.9 287,0.8 287.8,0 286.8,0.3 286.7,0.2 286.6,0.3 0.3,77.6 0.3,252.5 0,252.7 0.3,252.7 
		0.3,253 0.6,252.7 260,255 259.6,253.1 	"/>
	<polygon class="st1" points="292,395.8 390.5,256.2 391.2,255.2 391.4,254.9 391.1,254.9 259.6,253.1 260,255 276.3,327.8 
		277.3,326.9 	"/>
	<polygon class="st0" points="277.3,326.9 276.3,327.8 228.7,371.1 299.7,432.5 292,395.8 	"/>
</g>
<linearGradient id="SVGID_1_" gradientUnits="userSpaceOnUse" x1="112.6848" y1="155.7389" x2="391.2076" y2="155.7389">
	<stop  offset="0" style="stop-color:#8B5360"/>
	<stop  offset="0.217" style="stop-color:#945360"/>
	<stop  offset="0.5776" style="stop-color:#AE5360"/>
	<stop  offset="0.9944" style="stop-color:#D35360"/>
</linearGradient>
<polygon class="st2" points="112.7,204.4 162.1,253.8 391.2,254.9 268.4,56.6 192.9,90.6 158.4,98.6 "/>
<g>
	<path class="st3" d="M216.6,169.1H199v-32.6h76.7c0,18.7-1.3,32.7-3.9,41.8c-2.5,8.8-7.9,17.7-16,26.8c-8,9-17.6,15.5-29,19.6
		s-23.5,6.2-36.5,6.2c-19.3,0-36.9-3.2-52.7-9.6c-15.9-6.2-28.1-16.6-36.7-31.1c-8.7-14.2-13.1-30.2-13.1-47.8
		c0-26.7,8.8-48.3,26.4-64.6c17.4-16.4,38.8-24.5,64.1-24.5c21.1,0,37.7,5.1,49.7,15.4v-12h41.3v59.9H228c-3.6-7.4-8.3-13-14.1-16.8
		c-5.8-3.8-12.6-5.7-20.3-5.7c-10.9,0-18.8,3.5-23.9,10.6c-5,7.1-7.5,20.1-7.5,39c0,18.8,2.6,31.6,7.9,38.4
		c5.3,6.8,13.1,10.2,23.3,10.2C208.8,192.2,216.6,184.5,216.6,169.1z"/>
</g>
<g>
	<g>
		<path class="st3" d="M290.8,228h-27.6V217h4.4v-13.1h-4.4v-11.1h22.7v4.8c1.7-1.5,4-2.8,6.9-3.8c2.8-1.1,5.5-1.6,8.1-1.6
			c6,0,10,2.3,12,6.9c5.4-4.6,10.9-6.9,16.5-6.9c3.1,0,5.6,0.7,7.6,2c2,1.3,3.5,3.1,4.3,5.3c0.8,2.3,1.3,5.5,1.3,9.6v7.9h4.6V228
			h-22.9v-15.1c0-3.9-0.3-6.4-0.9-7.4c-0.6-1-1.7-1.5-3.3-1.5c-2,0-4,0.8-6,2.2V217h5V228h-23.2V213c0-3.9-0.3-6.3-0.8-7.4
			c-0.5-1-1.6-1.5-3.2-1.5c-1.9,0-3.8,0.8-5.9,2.2V217h4.9V228z"/>
	</g>
</g>
<g>
	<path class="st4" d="M440,189.6V222c0,1.3,0.3,2.3,0.9,3c0.6,0.7,1.7,1.2,3.2,1.7v2H426v-2c1.5-0.4,2.6-1,3.2-1.7
		c0.6-0.7,0.9-1.7,0.9-3v-73.4c0-1.3-0.3-2.2-0.9-2.9c-0.6-0.7-1.7-1.2-3.2-1.7v-2h45.6c6.4,0,11.4,0.3,14.9,1
		c3.6,0.7,6.7,1.9,9.5,3.7c2.9,1.8,5.3,4.2,7,7.3c2,3.5,3,7.4,3,11.7c0,5.9-1.8,11-5.5,15.2c-2.8,3.3-6.3,5.5-10.6,6.8
		c-4.3,1.3-10.4,1.9-18.4,1.9H440z M440,181.4h32.5c4.8,0,8.4-0.2,10.8-0.6c2.3-0.4,4.5-1.1,6.3-2.2c4.3-2.5,6.5-6.8,6.5-12.8
		c0-6-2.2-10.3-6.5-12.8c-1.9-1.1-4-1.8-6.3-2.2c-2.3-0.4-5.9-0.6-10.8-0.6H440V181.4z"/>
	<path class="st4" d="M557.8,156c12.7,0,22.9,3.3,30.6,9.9c8.3,7,12.4,16.2,12.4,27.7c0,7.2-2,13.7-6.1,19.7
		c-7.7,11.3-19.9,16.9-36.8,16.9c-12.6,0-22.7-3.3-30.5-9.9c-8.3-7-12.4-16.1-12.4-27.2c0-7.5,2-14.2,6-20.2
		c4.3-6.3,10.3-10.9,18-13.8C544.4,157.1,550.6,156.1,557.8,156z M557.8,163.4c-10.3,0-18.6,3.2-25,9.5c-5.5,5.5-8.3,12.2-8.3,20.2
		s2.8,14.7,8.3,20.2c6.3,6.3,14.7,9.5,25.1,9.5c10.4,0,18.8-3.2,25.1-9.5c5.5-5.5,8.3-12.1,8.3-19.8c0-8.3-2.8-15.2-8.3-20.6
		C576.7,166.6,568.3,163.4,557.8,163.4z"/>
	<path class="st4" d="M627.5,196.4v25c0,1.7,0.3,3,0.8,3.7c0.5,0.7,1.6,1.3,3.2,1.7v1.7h-17.2v-1.7c1.7-0.4,2.7-1,3.3-1.7
		c0.5-0.7,0.8-2,0.8-3.7v-56.8c0-1.8-0.3-3-0.8-3.7c-0.6-0.7-1.6-1.3-3.2-1.7v-1.7h42.2c4.8,0,8.7,0.3,11.7,1c3,0.7,5.7,1.8,7.9,3.4
		c4.9,3.5,7.4,8.6,7.4,15.2c0,5.5-1.7,9.8-5.1,12.9c-3.4,3.2-8.5,5-15.1,5.7l17.8,28.3c0.6,1,1.3,1.6,1.9,2c0.6,0.3,1.7,0.6,3.3,0.8
		v1.7h-17.6v-1.7c1.7-0.3,2.5-0.9,2.5-1.6c0-0.5-0.5-1.5-1.5-3l-16.4-25.8H627.5z M627.5,189.5h27c4.4,0,7.6-0.2,9.8-0.5
		c2.2-0.3,4-0.9,5.6-1.7c3.3-1.9,5-5.1,5-9.7c0-4.4-1.6-7.8-4.7-10c-2.9-2.1-7.8-3.1-14.7-3.1h-28.1V189.5z"/>
	<path class="st4" d="M731.7,164.8v56.6c0,1.7,0.3,3,0.8,3.7c0.5,0.7,1.6,1.3,3.3,1.7v1.7h-17.2v-1.7c1.6-0.4,2.7-1,3.2-1.7
		c0.5-0.7,0.8-2,0.8-3.7v-56.6h-23.2c-1.8,0-3,0.3-3.7,0.8c-0.7,0.5-1.3,1.6-1.7,3.3h-1.7v-15h1.7c0.4,1.6,1,2.7,1.7,3.2
		c0.7,0.6,2,0.8,3.7,0.8h55.4c1.8,0,3-0.3,3.7-0.8c0.7-0.5,1.3-1.6,1.7-3.2h1.7v15h-1.7c-0.4-1.6-1-2.7-1.7-3.3
		c-0.7-0.5-2-0.8-3.7-0.8H731.7z"/>
	<path class="st4" d="M783.9,195.3v26.2c0,1.7,0.3,3,0.8,3.7c0.5,0.7,1.6,1.3,3.2,1.7v1.7h-17.2v-1.7c1.6-0.4,2.7-1,3.2-1.7
		c0.5-0.7,0.8-2,0.8-3.7v-56.8c0-1.8-0.3-3-0.8-3.7c-0.6-0.7-1.6-1.3-3.2-1.7v-1.7h57.8c1.7,0,3-0.3,3.7-0.8
		c0.7-0.5,1.3-1.6,1.7-3.2h1.7v15H834c-0.4-1.6-1-2.7-1.7-3.3c-0.7-0.5-2-0.8-3.7-0.8h-44.6v23.9h29c1.8,0,3-0.3,3.7-0.8
		c0.7-0.5,1.3-1.6,1.7-3.3h1.7v15h-1.7c-0.4-1.6-1-2.7-1.7-3.2c-0.7-0.5-2-0.8-3.7-0.8H783.9z"/>
	<path class="st4" d="M885.6,156c12.7,0,22.9,3.3,30.6,9.9c8.3,7,12.4,16.2,12.4,27.7c0,7.2-2,13.7-6.1,19.7
		c-7.7,11.3-19.9,16.9-36.8,16.9c-12.6,0-22.7-3.3-30.5-9.9c-8.3-7-12.4-16.1-12.4-27.2c0-7.5,2-14.2,6-20.2
		c4.3-6.3,10.3-10.9,18-13.8C872.1,157.1,878.4,156.1,885.6,156z M885.6,163.4c-10.3,0-18.6,3.2-25,9.5c-5.5,5.5-8.3,12.2-8.3,20.2
		s2.8,14.7,8.3,20.2c6.3,6.3,14.7,9.5,25.1,9.5s18.8-3.2,25.1-9.5c5.5-5.5,8.3-12.1,8.3-19.8c0-8.3-2.8-15.2-8.3-20.6
		C904.4,166.6,896,163.4,885.6,163.4z"/>
	<path class="st4" d="M955.2,221.7h43.4c1.8,0,3-0.3,3.8-0.8c0.7-0.5,1.3-1.6,1.7-3.3h1.7v15h-1.7c-0.4-1.6-1-2.7-1.7-3.2
		c-0.7-0.6-2-0.8-3.8-0.8h-56.5v-1.7c1.6-0.4,2.7-1,3.2-1.7c0.5-0.7,0.8-2,0.8-3.7v-56.8c0-1.8-0.3-3-0.8-3.7
		c-0.6-0.7-1.6-1.3-3.2-1.7v-1.7h17.2v1.7c-1.6,0.4-2.7,1-3.2,1.7c-0.6,0.7-0.8,2-0.8,3.7V221.7z"/>
	<path class="st4" d="M1018.9,221.5v-56.8c0-1.8-0.3-3-0.8-3.7c-0.6-0.7-1.6-1.3-3.2-1.7v-1.7h17.2v1.7c-1.6,0.4-2.7,1-3.2,1.7
		c-0.6,0.7-0.8,2-0.8,3.7v56.8c0,1.7,0.3,3,0.8,3.7c0.5,0.7,1.6,1.3,3.2,1.7v1.7h-17.2v-1.7c1.6-0.4,2.7-1,3.2-1.7
		C1018.6,224.4,1018.9,223.2,1018.9,221.5z"/>
	<path class="st4" d="M1088.4,156c12.7,0,22.9,3.3,30.6,9.9c8.3,7,12.4,16.2,12.4,27.7c0,7.2-2,13.7-6.1,19.7
		c-7.7,11.3-19.9,16.9-36.8,16.9c-12.6,0-22.7-3.3-30.5-9.9c-8.3-7-12.4-16.1-12.4-27.2c0-7.5,2-14.2,6-20.2
		c4.3-6.3,10.3-10.9,18-13.8C1074.9,157.1,1081.2,156.1,1088.4,156z M1088.4,163.4c-10.3,0-18.6,3.2-25,9.5
		c-5.5,5.5-8.3,12.2-8.3,20.2s2.8,14.7,8.3,20.2c6.3,6.3,14.7,9.5,25.1,9.5s18.8-3.2,25.1-9.5c5.5-5.5,8.3-12.1,8.3-19.8
		c0-8.3-2.8-15.2-8.3-20.6C1107.2,166.6,1098.8,163.4,1088.4,163.4z"/>
</g>
</svg>
