<svg width="32" height="32" xmlns="http://www.w3.org/2000/svg">

 <g>
  <title>background</title>
  <rect fill="none" id="canvas_background" height="402" width="582" y="-1" x="-1"/>
 </g>
 <g>
  <title>Layer 1</title>
  <path id="svg_3" fill="#d35360" d="m1.911,16.179c-1.084,0.568 -1.039,1.4 0.098,1.852l3.364,1.331c1.137,0.449 2.856,0.204 3.821,-0.55l14.612,-11.523c0.961,-0.757 1.064,-0.645 0.229,0.249l-11.552,12.364c-0.837,0.892 -0.59,1.984 0.55,2.425l0.394,0.154c1.14,0.44 3,1.182 4.132,1.642l3.732,1.521c1.133,0.46 2.06,0.842 2.062,0.849c0.001,0.007 0.006,0.028 0.012,0.03s0.273,-0.962 0.594,-2.141l5.688,-20.908c0.321,-1.18 -0.302,-1.681 -1.385,-1.113l-26.351,13.818z"/>
  <path id="svg_5" fill="#d35360" d="m11.146,29.864c-0.067,0.199 2.301,-3.429 2.301,-3.429c0.669,-1.022 0.29,-2.241 -0.842,-2.703l-2.582,-1.058c-1.132,-0.463 -1.674,0.08 -1.205,1.212c0,0.001 2.396,5.774 2.328,5.978z"/>
 </g>
</svg>