<svg width="20" height="18" xmlns="http://www.w3.org/2000/svg">

 <g>
  <title>background</title>
  <rect fill="none" id="canvas_background" height="20" width="22" y="-1" x="-1"/>
 </g>
 <g>
  <title>Layer 1</title>
  <path stroke="null" id="svg_3" fill="#d35360" d="m2.851352,7.822377c-0.590599,0.309465 -0.566081,0.762766 0.053394,1.00903l1.832817,0.725172c0.619475,0.24463 1.556042,0.111146 2.081805,-0.299658l7.961094,-6.278106c0.523584,-0.412438 0.579702,-0.351417 0.124767,0.135663l-6.293906,6.73631c-0.456025,0.485991 -0.321451,1.080948 0.299658,1.321219l0.214664,0.083904c0.621109,0.239726 1.634498,0.643992 2.251248,0.894615l2.033315,0.82869c0.617295,0.250623 1.122355,0.458749 1.123445,0.462563c0.000545,0.003814 0.003269,0.015255 0.006538,0.016345s0.148739,-0.524129 0.323631,-1.166487l3.099008,-11.39136c0.174891,-0.642902 -0.164539,-0.915864 -0.754593,-0.606399l-14.356884,7.528497z"/>
  <path stroke="null" id="svg_5" fill="#d35360" d="m7.909775,17.538512c-0.063493,0.188583 2.180551,-3.249504 2.180551,-3.249504c0.63398,-0.968502 0.27482,-2.123692 -0.797924,-2.561508l-2.446841,-1.002617c-1.072744,-0.438764 -1.586372,0.075812 -1.141923,1.148556c0,0.000948 2.270578,5.471752 2.206137,5.665073z"/>
 </g>
</svg>