<svg width="18" height="18" xmlns="http://www.w3.org/2000/svg">

 <g>
  <title>background</title>
  <rect fill="none" id="canvas_background" height="20" width="20" y="-1" x="-1"/>
 </g>
 <g>
  <title>Layer 1</title>
  <path stroke="null" fill="#d35360" id="svg_1" d="m12.550299,6.567092c0,1.771648 -1.443298,3.20899 -3.22369,3.20899c-1.780646,0 -3.22369,-1.437341 -3.22369,-3.20899c0,-1.772155 1.443298,-3.20899 3.22369,-3.20899c1.780773,-0.000127 3.22369,1.436708 3.22369,3.20899m3.344715,0c0,-3.54469 -2.886469,-6.418106 -6.447507,-6.418106c-3.560785,0 -6.447507,2.873416 -6.447507,6.418106c0,1.558493 0.558614,2.98747 1.486892,4.098996l4.966191,7.132595l5.038806,-7.236638c0.180967,-0.225448 0.346726,-0.463062 0.496264,-0.712841l0.050944,-0.072741l-0.008364,0c0.548729,-0.944626 0.86428,-2.039803 0.86428,-3.20937"/>
 </g>
</svg>